<svg xmlns="http://www.w3.org/2000/svg" viewBox="0 0 110.5 113.4"><defs><style>.cls-1{fill:#f85aa4;}.cls-2{fill:#60b0fd;}.cls-3{fill:#fff;}.cls-4{fill:#ed7149;}.cls-5{fill:#90c31f;}.cls-12,.cls-14,.cls-17,.cls-6,.cls-7{fill:none;}.cls-6{stroke:#90c31f;stroke-linecap:round;stroke-linejoin:round;stroke-width:5px;}.cls-7{stroke:#3dbdc6;}.cls-12,.cls-14,.cls-7{stroke-miterlimit:10;}.cls-10,.cls-11,.cls-12,.cls-7,.cls-8,.cls-9{fill-rule:evenodd;}.cls-8{fill:#fc5890;}.cls-9{fill:#889bfc;}.cls-10{fill:#fff800;}.cls-11{fill:#42e1d0;}.cls-12{stroke:#42e1d0;}.cls-13{fill:#5db2fd;}.cls-14{stroke:#5db2fd;}.cls-15{fill:#ffd25d;}.cls-16{fill:#43e4d0;}</style></defs><title>预约成功弹框</title><g id="图层_2" data-name="图层 2"><g id="图层_1-2" data-name="图层 1"><path class="cls-1" d="M18.67,99.44H92.23V23.23H87.15c-7-7.82-18.57-12.94-31.69-12.94S30.74,15.4,23.76,23.23H18.67Z"/><path class="cls-2" d="M18.67,30.67H92.23V23.31H87.15a38.63,38.63,0,0,0-63.39,0H18.67Z"/><rect class="cls-3" x="37.06" y="26.1" width="12.87" height="4.31"/><rect class="cls-3" x="60.97" y="26.1" width="12.87" height="4.31"/><rect class="cls-3" x="27.87" y="41.92" width="14.71" height="4.31"/><rect class="cls-3" x="48.1" y="41.92" width="14.71" height="4.31"/><rect class="cls-3" x="68.33" y="41.92" width="14.71" height="4.31"/><rect class="cls-3" x="27.87" y="64.93" width="14.71" height="4.31"/><rect class="cls-3" x="48.1" y="60.62" width="14.71" height="8.63"/><rect class="cls-3" x="68.33" y="63.49" width="14.71" height="5.75"/><rect class="cls-3" x="68.33" y="83.62" width="14.71" height="8.63"/><rect class="cls-3" x="48.1" y="87.94" width="14.71" height="4.31"/><rect class="cls-3" x="27.87" y="86.5" width="14.71" height="5.75"/><rect class="cls-4" x="27.87" y="82.19" width="14.71" height="4.31"/><rect class="cls-4" x="48.1" y="83.62" width="14.71" height="4.31"/><rect class="cls-4" x="68.33" y="79.31" width="14.71" height="4.31"/><rect class="cls-4" x="27.87" y="60.62" width="14.71" height="4.31"/><rect class="cls-4" x="48.1" y="56.59" width="14.71" height="4.09"/><rect class="cls-4" x="68.33" y="59.4" width="14.71" height="4.09"/><rect class="cls-3" x="37.06" y="21.79" width="12.87" height="4.31"/><rect class="cls-3" x="60.97" y="21.79" width="12.87" height="4.31"/><rect class="cls-3" x="27.87" y="37.61" width="14.71" height="4.31"/><rect class="cls-3" x="48.1" y="37.61" width="14.71" height="4.31"/><rect class="cls-3" x="68.33" y="37.61" width="14.71" height="4.31"/><rect class="cls-3" x="27.87" y="51.99" width="14.71" height="8.63"/><rect class="cls-3" x="48.1" y="51.99" width="14.71" height="4.31"/><rect class="cls-3" x="68.33" y="51.99" width="14.71" height="7.19"/><rect class="cls-3" x="27.87" y="75" width="14.71" height="7.19"/><rect class="cls-3" x="48.1" y="75" width="14.71" height="8.63"/><rect class="cls-3" x="68.33" y="75" width="14.71" height="4.31"/><rect class="cls-5" x="53.61" y="32.81" width="3.68" height="3.61"/><path class="cls-6" d="M15.74,69.24V97.68H89.11V21.27H83.45c-7.23-7.85-18.76-12.51-31-12.51s-23.78,4.66-31,12.51H15.74V56.59"/><line class="cls-6" x1="15.74" y1="80.59" x2="15.74" y2="82.43"/><path class="cls-7" d="M70.43,83.59h0c-.52.52-2.9,2.79-2.9,2.79a.16.16,0,0,1-.23,0L64.4,83.6h0l0,0h0a1.94,1.94,0,1,1,3-2.38,1.94,1.94,0,1,1,3,2.4Z"/><path class="cls-8" d="M22.45,12.92h0a2.21,2.21,0,0,0-2.2-2.21,2.18,2.18,0,0,0-1.58.67,2.18,2.18,0,0,0-1.58-.67,2.21,2.21,0,0,0-1.6,3.72l0,0,0,0h0l2.78,2.67a.49.49,0,0,0,.69,0c.09-.08,2.28-2.17,2.78-2.67h0l0,0A2.2,2.2,0,0,0,22.45,12.92Zm-5.35-1.1A1.13,1.13,0,0,0,16,13a.17.17,0,1,1-.34,0,1.47,1.47,0,0,1,1.46-1.47h0a.17.17,0,0,1,0,.34Z"/><path class="cls-8" d="M88.62,109h0a2.21,2.21,0,0,0-2.2-2.21,2.18,2.18,0,0,0-1.58.67,2.18,2.18,0,0,0-1.58-.67,2.21,2.21,0,0,0-1.6,3.72l0,0,0,0h0l2.78,2.67a.49.49,0,0,0,.69,0c.09-.08,2.28-2.17,2.78-2.67h0l0,0A2.2,2.2,0,0,0,88.62,109Zm-5.35-1.1a1.13,1.13,0,0,0-1.13,1.13.17.17,0,1,1-.34,0,1.47,1.47,0,0,1,1.46-1.47h0a.17.17,0,0,1,0,.34Z"/><path class="cls-8" d="M98.4,73.19c-2.54,0-2.55,4,0,4S100.94,73.19,98.4,73.19Z"/><path class="cls-8" d="M8.06,64.16c-2.54,0-2.55,4,0,4S10.61,64.16,8.06,64.16Z"/><path class="cls-9" d="M94.58,17.15c-2.54,0-2.55,4,0,4S97.13,17.15,94.58,17.15Z"/><path class="cls-9" d="M29,87.07c-2.54,0-2.55,4,0,4S31.55,87.07,29,87.07Z"/><path class="cls-9" d="M7.67,94.19c-2.54,0-2.55,4,0,4S10.21,94.19,7.67,94.19Z"/><polygon class="cls-10" points="80.36 36.99 77.13 36.54 75.68 33.7 74.24 36.54 71 36.99 73.35 39.2 72.79 42.32 75.68 40.84 78.58 42.32 78.02 39.2 80.36 36.99 80.36 36.99"/><polygon class="cls-10" points="110.5 87.14 107.27 86.68 105.82 83.84 104.38 86.68 101.14 87.14 103.48 89.34 102.93 92.46 105.82 90.99 108.71 92.46 108.16 89.34 110.5 87.14 110.5 87.14"/><polygon class="cls-11" points="35.2 106.62 33.59 106.39 32.87 104.97 32.14 106.39 30.52 106.62 31.7 107.72 31.42 109.28 32.87 108.55 34.31 109.28 34.03 107.72 35.2 106.62 35.2 106.62"/><polygon class="cls-12" points="47.59 91.87 45.98 91.64 45.26 90.22 44.53 91.64 42.92 91.87 44.09 92.97 43.81 94.53 45.26 93.79 46.7 94.53 46.42 92.97 47.59 91.87 47.59 91.87"/><circle class="cls-13" cx="103.06" cy="48.41" r="2.76"/><circle class="cls-14" cx="100.76" cy="99.44" r="3.22"/><circle class="cls-14" cx="3.72" cy="43.62" r="3.22"/><path class="cls-15" d="M54.68,1.35c-2.54,0-2.55,4,0,4S57.23,1.35,54.68,1.35Z"/><path class="cls-15" d="M3.72,41.64c-2.54,0-2.55,4,0,4S6.26,41.64,3.72,41.64Z"/><circle class="cls-14" cx="78.78" cy="3.72" r="3.22"/><path class="cls-16" d="M78.78,1.74c-2.54,0-2.55,4,0,4S81.32,1.74,78.78,1.74Z"/><rect id="_切片_" data-name="&lt;切片&gt;" class="cls-17" x="0.5" y="1.95" width="110" height="110"/></g></g></svg>