<svg xmlns="http://www.w3.org/2000/svg" viewBox="0 0 45 45"><defs><style>.cls-1{fill:#b2b2b2;fill-rule:evenodd;}</style></defs><title>增加图片</title><g id="图层_2" data-name="图层 2"><g id="图层_1-2" data-name="图层 1"><path class="cls-1" d="M22.5,0A22.5,22.5,0,1,0,45,22.5,22.5,22.5,0,0,0,22.5,0Zm0,43.5a21,21,0,1,1,21-21,21,21,0,0,1-21,21Z"/><polygon class="cls-1" points="23.25 12 21.75 12 21.75 21.75 12 21.75 12 23.25 21.75 23.25 21.75 33 23.25 33 23.25 23.25 33 23.25 33 21.75 23.25 21.75 23.25 12 23.25 12"/></g></g></svg>