<svg xmlns="http://www.w3.org/2000/svg" viewBox="0 0 173.02 130"><defs><style>.cls-1{font-size:30.69px;font-family:PingFang-SC-Regular-GBpc-EUC-H, PingFang SC;}.cls-1,.cls-2{fill:#ea6000;}.cls-2{fill-rule:evenodd;}</style></defs><title>合同违约</title><g id="图层_2" data-name="图层 2"><g id="图层_1-2" data-name="图层 1"><text class="cls-1" transform="translate(22.9 58.41) rotate(15.03)">合同违约</text><path class="cls-2" d="M86.51,25.66a39.24,39.24,0,0,1,31.62,16l5,1.34A42.82,42.82,0,0,0,65.79,27.57l5,1.35a39.44,39.44,0,0,1,15.72-3.25Zm25.83-2.23,2.74,2.21.85-3.34L119,20.5l-3.08-1.8-.85-3.34-2.74,2.21-3.59-.27,1.38,3.17-1.38,3.17,3.59-.2ZM64.7,16l-2.83-2-.63,3.49-2.89,2.16,3.12,1.5,1,3.3,2.55-2.57,3.54-.1-1.53-3.08,1.16-3.37L64.7,16Zm26.46-4.8L89.06,8.45l-1.65,3.13L84,12.75l2.5,2.37,0,3.46,3.2-1.67,3.41,1-.53-3.39,2.11-2.86-3.52-.44Zm38.28,21.45-3-2L126,34l-2.78,2,3.22,1.6L127.73,41l2.42-2.43,3.56,0L132,35.43l1-3.3-3.49.49Zm38.52,25.86L19.23,18.64a6.85,6.85,0,0,0-8.38,4.84L.23,63.14a6.85,6.85,0,0,0,4.84,8.38l148.71,39.84a6.85,6.85,0,0,0,8.38-4.84l10.62-39.66a6.82,6.82,0,0,0-4.84-8.38ZM169,67.65,159.3,104a5.15,5.15,0,0,1-6.28,3.63L7.62,68.65A5.15,5.15,0,0,1,4,62.37L13.73,26A5.15,5.15,0,0,1,20,22.39l145.41,39A5.11,5.11,0,0,1,169,67.65ZM86.51,3.41A61.62,61.62,0,0,1,146,49.05l3.8,1A65,65,0,0,0,39.19,20.43l3.78,1a61.38,61.38,0,0,1,43.54-18Zm15.7,97.68A39.31,39.31,0,0,1,54.89,88.4l-5-1.35a42.82,42.82,0,0,0,57.36,15.39l-5-1.36Zm-36.69,7.1L62.79,106l-.85,3.34-3,1.8,3,1.8.85,3.34L65.51,114l3.58.26-1.38-3.17L69.09,108l-3.58.22Zm21,10.54,2.08,2.72,1.63-3.12,3.39-1.18-2.49-2.38,0-3.44L88,113l-3.37-1,.53,3.39L83,118.3l3.49.43ZM43.26,97.22l2.79,2.25.66-3.39,2.91-1.84-3.08-1.82-1-3.37L43,91.31l-3.52-.26,1.5,3.2-1.19,3.22,3.49-.26Zm43.25,29.37A61.62,61.62,0,0,1,27,80.95l-3.8-1a65,65,0,0,0,110.62,29.63l-3.78-1a61.35,61.35,0,0,1-43.54,18ZM111.25,114l2.81,2,.61-3.46,2.86-2.15-3.1-1.5-1-3.3-2.5,2.55-3.51.1,1.53,3.06-1.12,3.37,3.46-.65Z"/></g></g></svg>