<svg xmlns="http://www.w3.org/2000/svg" viewBox="0 0 80 80"><defs><style>.cls-1{fill:#fff;fill-rule:evenodd;}.cls-2{fill:#90c31f;}</style></defs><title>收费明细</title><g id="图层_2" data-name="图层 2"><g id="图层_1-2" data-name="图层 1"><path class="cls-1" d="M40,37.64A2.36,2.36,0,1,0,42.36,40,2.35,2.35,0,0,0,40,37.64Zm0,4.42A2.06,2.06,0,1,1,42.06,40,2,2,0,0,1,40,42.06Zm-.24-2.45c0,.25,0,.51,0,.76s.09.22.26.22.17-.1.17-.22c0-.45,0-.89.06-1.34,0-.2,0-.29-.26-.29s-.27.1-.26.3l0,.58Zm.54,1.54a.3.3,0,0,1-.31.29.27.27,0,0,1-.3-.25c0-.18.11-.28.28-.3a.3.3,0,0,1,.33.25Z"/><circle class="cls-2" cx="40" cy="40" r="40"/><path class="cls-1" d="M48.29,60.49A11.71,11.71,0,1,1,60,48.78,11.71,11.71,0,0,1,48.29,60.49Zm0-20.49a8.78,8.78,0,1,0,8.78,8.78A8.78,8.78,0,0,0,48.29,40Zm3.9,11.71H46.15l1.13,1.91c.11.19-.16.54-.6.79s-.89.3-1,.11a34.17,34.17,0,0,1-2.26-3.79.9.9,0,0,1,0-.1.31.31,0,0,1,0-.09,1,1,0,0,1,.94-.79h.24a.73.73,0,0,1,.2,0H52.2a1,1,0,0,1,0,2ZM53.13,47a1,1,0,0,1-.94.79H52a.73.73,0,0,1-.2,0H44.39a1,1,0,0,1,0-2h6.05l-1.13-1.91c-.11-.19.16-.54.6-.79s.89-.3,1-.11a34.17,34.17,0,0,1,2.26,3.79.9.9,0,0,1,0,.1.31.31,0,0,1,0,.09ZM47.32,29.27a1,1,0,1,1,0,2H42.44a1,1,0,1,1,0-2ZM27.8,46.83h4.88a1,1,0,0,1,0,2H27.8a1,1,0,0,1,0-2ZM37.56,36.1a1,1,0,1,1,0,2h-3.9V42a1,1,0,0,1-2,0V38H27.8a1,1,0,1,1,0-2h3.9V32.2H27.8a1,1,0,0,1,0-2h1v-2a1,1,0,1,1,2,0v2h3.9v-2a1,1,0,1,1,2,0v2h1a1,1,0,0,1,0,2h-3.9v3.9ZM52.2,24.39a2,2,0,0,0-2-2H24.88a2,2,0,0,0-2,2V52.68a2,2,0,0,0,2,2H36a13.66,13.66,0,0,0,1.87,2.93H23.9a3.9,3.9,0,0,1-3.9-3.9V23.41a3.9,3.9,0,0,1,3.9-3.9H51.22a3.9,3.9,0,0,1,3.9,3.9V37A13.55,13.55,0,0,0,52.2,35.7V24.39Z"/><path class="cls-1" d="M48.29,60.49A11.71,11.71,0,1,1,60,48.78,11.71,11.71,0,0,1,48.29,60.49Zm0-20.49a8.78,8.78,0,1,0,8.78,8.78A8.78,8.78,0,0,0,48.29,40Zm3.9,11.71H46.15l1.13,1.91c.11.19-.16.54-.6.79s-.89.3-1,.11a34.17,34.17,0,0,1-2.26-3.79.9.9,0,0,1,0-.1.31.31,0,0,1,0-.09,1,1,0,0,1,.94-.79h.24a.73.73,0,0,1,.2,0H52.2a1,1,0,0,1,0,2ZM53.13,47a1,1,0,0,1-.94.79H52a.73.73,0,0,1-.2,0H44.39a1,1,0,0,1,0-2h6.05l-1.13-1.91c-.11-.19.16-.54.6-.79s.89-.3,1-.11a34.17,34.17,0,0,1,2.26,3.79.9.9,0,0,1,0,.1.31.31,0,0,1,0,.09ZM47.32,29.27a1,1,0,1,1,0,2H42.44a1,1,0,1,1,0-2ZM27.8,46.83h4.88a1,1,0,0,1,0,2H27.8a1,1,0,0,1,0-2ZM37.56,36.1a1,1,0,1,1,0,2h-3.9V42a1,1,0,0,1-2,0V38H27.8a1,1,0,1,1,0-2h3.9V32.2H27.8a1,1,0,0,1,0-2h1v-2a1,1,0,1,1,2,0v2h3.9v-2a1,1,0,1,1,2,0v2h1a1,1,0,0,1,0,2h-3.9v3.9ZM52.2,24.39a2,2,0,0,0-2-2H24.88a2,2,0,0,0-2,2V52.68a2,2,0,0,0,2,2H36a13.66,13.66,0,0,0,1.87,2.93H23.9a3.9,3.9,0,0,1-3.9-3.9V23.41a3.9,3.9,0,0,1,3.9-3.9H51.22a3.9,3.9,0,0,1,3.9,3.9V37A13.55,13.55,0,0,0,52.2,35.7V24.39Z"/></g></g></svg>