<svg xmlns="http://www.w3.org/2000/svg" viewBox="0 0 35 34.3"><defs><style>.cls-1{opacity:0.4;}.cls-2{fill:#fff;}</style></defs><title>资源 71</title><g id="图层_2" data-name="图层 2"><g id="图层_1-2" data-name="图层 1"><g class="cls-1"><path class="cls-2" d="M17.5,0H13.3l-.07,0h0l-.06,0h0l-.1,0h0a17.41,17.41,0,0,0-5,2.2L9.12,4.46A15.44,15.44,0,0,1,17.5,2V0ZM1.58,10.23l-.2.45h0l0,0h-.1v0h0l0,.05h0l0,.07h0A17.4,17.4,0,0,0,.07,15.91h0V16h0v.05h0v.07H0v0H0v0H0v0H0v0H0v0H0v0H0v0H0v0H0v0H0v0H0v0H0v0H0v0H0q0,.66.1,1.3h0v0h0v0h0v0h0v0h0l0,.29,2-.28A15.71,15.71,0,0,1,2,17.5a15.37,15.37,0,0,1,1.39-6.43l-1.82-.83ZM5.79,27.66,4.28,29a17.51,17.51,0,0,0,8.3,5.33l.56-1.92a15.47,15.47,0,0,1-7.35-4.72Zm23.43,0a15.47,15.47,0,0,1-7.34,4.74l.56,1.92a17.51,17.51,0,0,0,8.17-5.21h0l0,0h.06l-1.51-1.31Zm4.19-17.43L31.59,11A15.37,15.37,0,0,1,33,17.5a15.71,15.71,0,0,1-.15,2.19l2,.28q.09-.63.13-1.28h0v0h0v0h0v0h0v0h0v0h0v0h0v0h0v0h0v0h0v0h0v0h0v0h0v0h0v0h0v0h0v0h0v0h0v0h0v0h0v0h0v-.06h0v-.05h0v-.07h0v-.05h0l0-.09h0q-.06-.32-.12-.63h0l0-.1h0l-.08-.36h0l0-.1h0l0-.17h0l0-.08h0l0-.07h0l0-.06h0v0h0v0h0v0h-.08v0h0v0h0a17.39,17.39,0,0,0-.73-1.87ZM17.5,0V2a15.44,15.44,0,0,1,8.36,2.44l1.08-1.68H17.5Z"/></g><circle class="cls-2" cx="17.5" cy="17.5" r="9.39"/></g></g></svg>