<svg xmlns="http://www.w3.org/2000/svg" viewBox="0 0 78.19 121.85"><defs><style>.cls-1{fill:#8dc21f;fill-rule:evenodd;}</style></defs><title>半个苹果</title><g id="图层_2" data-name="图层 2"><g id="图层_1-2" data-name="图层 1"><path class="cls-1" d="M46.51,27.79c-12.09,2.33-24.59,3.72-33.87,13.46C6.8,47.38,2.57,57,4,66.15A84,84,0,0,0,12.56,92.9c3,5.66,12.31,21.41,19.45,22.89,4.9,1,9.16-4.46,14.05-4.3s5.54,5.31,8.42,8.36c2.63,2.77,5.58.34,8.36,1.32l0,.09c-3.13-.68-5.84,2.08-9-.6-2.53-2.16-3.79-7.24-7.69-6.86-4.11.39-7.69,4.27-11.6,5.62C28,121.66,21,112.59,18,108.7,6.7,94-4,72.42,1.47,52.54A30.17,30.17,0,0,1,18.64,32.69l20.58-4.89,7.29,0Z"/><path class="cls-1" d="M73.34,0s5.5,1.43,4.79,3.9c-.6,2.07-16.45,21.85-22,29.81-1.1,1.59-1.5,2.38-.62,0,3-8,10.69-28.52,17.8-33.69Z"/><path class="cls-1" d="M66.93,37.18c.77-.18,1.33-.76,1.28-1.28s-.72-.81-1.48-.63L55,37.84c-3.83.58-7.2-.51-10.4-1.2a2,2,0,0,0-1.89.71.75.75,0,0,0,.5,1.24l5.47,1.13,6,.47,4.58-.86"/></g></g></svg>