<svg xmlns="http://www.w3.org/2000/svg" viewBox="0 0 22 22"><defs><style>.cls-1{fill:#fff;fill-rule:evenodd;}</style></defs><title>积分说明</title><g id="图层_2" data-name="图层 2"><g id="图层_1-2" data-name="图层 1"><path class="cls-1" d="M11,0A11,11,0,1,0,22,11.06,11,11,0,0,0,11,0Zm0,20.59a9.51,9.51,0,0,1-9.61-9.67A9.5,9.5,0,0,1,11,1.41,9.51,9.51,0,0,1,20.58,11,9.5,9.5,0,0,1,11,20.59ZM9.92,9.18c0,1.18,0,2.37,0,3.55,0,.78.43,1,1.21,1s.78-.48.8-1c.07-2.08.13-4.16.26-6.23.06-.91-.1-1.36-1.2-1.36S9.74,5.58,9.8,6.48l.12,2.7Zm2.5,7.16A1.39,1.39,0,0,1,11,17.69a1.25,1.25,0,0,1-1.4-1.16c-.07-.85.49-1.32,1.31-1.37a1.42,1.42,0,0,1,1.53,1.18Z"/></g></g></svg>