<svg xmlns="http://www.w3.org/2000/svg" viewBox="0 0 16 23.5"><defs><style>.cls-1{fill:#8dc21f;fill-rule:evenodd;}</style></defs><title>普通定位</title><g id="图层_2" data-name="图层 2"><g id="图层_1-2" data-name="图层 1"><path class="cls-1" d="M12.5,8A4.5,4.5,0,1,0,8,12.5,4.5,4.5,0,0,0,12.5,8Zm-8,0A3.5,3.5,0,1,1,8,11.5,3.5,3.5,0,0,1,4.5,8ZM16,8A8,8,0,1,0,0,8c0,4.42,8,14,8,14s8-9.58,8-14ZM8,1a7,7,0,0,1,7,7c0,3.87-7,12.5-7,12.5S1,11.87,1,8A7,7,0,0,1,8,1Zm3.54,17.79-.64.86c2.13.25,3.6.75,3.6,1.34,0,.83-2.91,1.5-6.5,1.5S1.5,21.83,1.5,21c0-.59,1.47-1.1,3.6-1.34l-.64-.86C2.1,19.22.5,20,.5,21c0,1.38,3.36,2.5,7.5,2.5s7.5-1.12,7.5-2.5c0-1-1.6-1.78-4-2.21Z"/></g></g></svg>