<svg xmlns="http://www.w3.org/2000/svg" viewBox="0 0 278.83 107"><defs><style>.cls-1,.cls-3{fill:#8fc31f;}.cls-1{fill-rule:evenodd;}.cls-2{fill:#eb6100;}</style></defs><title>logo</title><g id="图层_2" data-name="图层 2"><g id="图层_2-2" data-name="图层 2"><path class="cls-1" d="M237.88,39.2c-8.71,1.68-17.72,2.69-24.41,9.71-4.21,4.42-7.26,11.35-6.23,17.95a60.56,60.56,0,0,0,6.18,19.28c2.19,4.08,8.87,15.44,14,16.5,3.52.73,6.6-3.21,10.13-3.1s4,3.83,6.07,6c1.9,2,4,.25,6,.95l0,.07c-2.26-.49-4.21,1.5-6.48-.44-1.82-1.56-2.73-5.21-5.54-4.95s-5.54,3.08-8.36,4.05c-4.72,1.62-9.77-4.92-11.92-7.72C209.19,86.91,201.48,71.37,205.41,57a21.73,21.73,0,0,1,12.38-14.3l14.83-3.53Z"/><path class="cls-1" d="M254.8,102.88c.91.1,1.94-.73,2.58-1.29,5.8-5.1,10.61-12.69,13.88-20,3-6.79,6.69-16.25,3.63-23.91-2.95-7.39-8-14.74-15.46-16.43v0c10.37.56,20.19,12.11,19.36,23.76-.93,13.09-7.39,24.93-16.26,33.32-1.19,1.12-5.36,5.24-7.72,4.56Z"/><path class="cls-1" d="M240.24,35.19c-4.94-4-9.65-7.61-13-13.49-3.7-6.52-3.54-13.12-2-20.25.53-2.51,5.94-1.1,7.19-.74,5.53,1.64,9.34,7.94,11,13.65,1.47,5.13,3.2,11.34,2.25,16.84a1.83,1.83,0,0,1-.27.69l0,0a4,4,0,0,0,.3-2c-.27-7.07-2.2-14.63-5.94-20.45a15.5,15.5,0,0,0-5.57-5.59L231.89,3l-2.49-.24-2.07.3-.62,2.76-.26,3.32.19,3.11c1.51,9.76,7.9,15.08,14.7,20.6a1.39,1.39,0,0,1,.51,1.78,1.15,1.15,0,0,1-1.62.57Z"/><path class="cls-1" d="M257.23,19.16s4,1,3.45,2.81c-.43,1.49-11.86,15.75-15.83,21.49-.8,1.15-1.09,1.72-.44,0,2.15-5.8,7.7-20.56,12.83-24.28Z"/><path class="cls-1" d="M252.6,46c.55-.13,1-.54.92-.92s-.52-.58-1.07-.45L244,46.44c-2.76.42-5.19-.36-7.5-.86a1.43,1.43,0,0,0-1.36.51.54.54,0,0,0,.37.89l3.94.82,4.33.34,3.3-.62"/><path class="cls-2" d="M157.82,26.47,127.7,41.09v5.27l30.11-14.5,30.12,14.5V41.09Zm2.53,38.72h10.8A8.77,8.77,0,0,0,177.56,63a7.7,7.7,0,0,0,2.11-5.77V43.88H136V57.24A7.72,7.72,0,0,0,138.08,63a8.79,8.79,0,0,0,6.41,2.19h10.8v4.15H130.36V97.52h5.25V74.06h19.69v7.43h-15V86h36.19l-2.85-8.48h-5.33l1.33,4h-9.33V74.06H180V97.52h5.25V69.35H160.35Zm0-8.53h12.78V52.42H160.35V48.14H175.2v8a4.75,4.75,0,0,1-1.29,3.55A5.43,5.43,0,0,1,170,61h-9.61Zm-5.05-4.25H142.52v4.25h12.78V61h-9.61a5.38,5.38,0,0,1-3.94-1.35,4.73,4.73,0,0,1-1.31-3.55v-8h14.86Z"/><polygon class="cls-3" points="2.14 97.52 7.68 97.52 7.68 65.73 48.75 65.73 48.75 68.61 48.75 69.98 10.23 69.98 10.23 74.95 48.75 74.95 48.75 77.26 48.75 78.58 10.23 78.58 10.23 83.55 48.75 83.55 48.75 97.52 54.3 97.52 54.3 60.92 2.14 60.92 2.14 97.52"/><polygon class="cls-3" points="30.99 35.05 25.45 35.05 25.45 37.09 0 37.09 0 41.9 25.45 41.9 25.45 45.26 0 45.26 0 50.07 25.45 50.07 25.45 53.5 0 53.5 0 58.31 56.44 58.31 56.44 53.5 30.99 53.5 30.99 50.07 56.44 50.07 56.44 45.26 30.99 45.26 30.99 41.9 56.44 41.9 56.44 37.09 30.99 37.09 30.99 35.05"/><path class="cls-3" d="M95,70.49V67.84h25.45v-5H95V59.68h12.76v0a14.11,14.11,0,0,0,8.25-2.9,9.15,9.15,0,0,0,3.68-7h0v-.13c0-.28,0-1,0-1.32a3.34,3.34,0,0,1,0-.39h0V35H64.76V49.63h0a9.13,9.13,0,0,0,3.68,7.1,14.07,14.07,0,0,0,8.25,2.9v0H89.45v3.17H64v5H89.45v2.65L63.2,88V95L89.45,77.12v20.4H95V77.12L121.25,95V87.95Zm19.44-30.92V49.86l0,.28h0a4.52,4.52,0,0,1-2.21,3.09,9.33,9.33,0,0,1-4.77,1.35H95V48.8H112V44.46H95V39.57ZM77,54.59a9.28,9.28,0,0,1-4.92-1.42A4.27,4.27,0,0,1,70,49.71h0V47.92l0-1.29V39.57H89.45v4.89H72.4V48.8H89.45v5.8Z"/></g></g></svg>