<svg xmlns="http://www.w3.org/2000/svg" xmlns:xlink="http://www.w3.org/1999/xlink" viewBox="0 0 61 61"><defs><style>.cls-1{fill:none;stroke:#8dc21f;stroke-miterlimit:10;opacity:0.5;}.cls-1,.cls-2,.cls-3{fill-rule:evenodd;}.cls-2{fill:url(#未命名的渐变_13);}.cls-3{fill:url(#未命名的渐变_13-2);}</style><linearGradient id="未命名的渐变_13" x1="25.57" y1="46.48" x2="35.28" y2="46.48" gradientUnits="userSpaceOnUse"><stop offset="0" stop-color="#8dc21f" stop-opacity="0.4"/><stop offset="1" stop-color="#8dc21f"/></linearGradient><linearGradient id="未命名的渐变_13-2" x1="25.54" y1="26.27" x2="35.45" y2="26.27" xlink:href="#未命名的渐变_13"/></defs><title>注意</title><g id="图层_2" data-name="图层 2"><g id="图层_1-2" data-name="图层 1"><path class="cls-1" d="M30.5.5a30,30,0,1,0,30,30,30,30,0,0,0-30-30Z"/><path class="cls-2" d="M33.83,49.85a4.94,4.94,0,0,1-6.81,0,4.58,4.58,0,0,1-1.45-3.33,5,5,0,0,1,4.86-4.78,4.71,4.71,0,0,1,3.41,8.11Z"/><path class="cls-3" d="M35,21.38c-.26,1.28-.6,2.56-.85,3.92-.43,1.45-.85,3.24-1.28,5.37s-.94,4.86-1.45,8.1h-2c-.51-3.24-1-5.88-1.45-8.1s-.85-4-1.2-5.45-.69-2.9-.94-4a12.45,12.45,0,0,1-.34-2.73A3.85,3.85,0,0,1,27,15.14a4.89,4.89,0,0,1,3.5-1.36A4.79,4.79,0,0,1,34,15.15a4.59,4.59,0,0,1,1.45,3.33A17,17,0,0,1,35,21.38Z"/></g></g></svg>