<svg xmlns="http://www.w3.org/2000/svg" xmlns:xlink="http://www.w3.org/1999/xlink" viewBox="0 0 160.23 160.23"><defs><style>.cls-1,.cls-2{fill-rule:evenodd;}.cls-1{fill:url(#未命名的渐变_9);}.cls-2{fill:url(#未命名的渐变_9-2);}</style><linearGradient id="未命名的渐变_9" y1="80.11" x2="160.23" y2="80.11" gradientUnits="userSpaceOnUse"><stop offset="0" stop-color="#90c31f" stop-opacity="0.4"/><stop offset="1" stop-color="#90c31f"/></linearGradient><linearGradient id="未命名的渐变_9-2" x1="43.61" y1="82.07" x2="116.68" y2="82.07" xlink:href="#未命名的渐变_9"/></defs><title>支付成功</title><g id="图层_2" data-name="图层 2"><g id="图层_1-2" data-name="图层 1"><path class="cls-1" d="M80.11,0a80.11,80.11,0,1,0,80.11,80.11A80.2,80.2,0,0,0,80.11,0Zm0,153.82a73.7,73.7,0,1,1,73.7-73.7,73.79,73.79,0,0,1-73.7,73.7Z"/><path class="cls-2" d="M105.74,58.31,71.81,92.24,54.55,75A6.41,6.41,0,0,0,45.49,84l21.79,21.79a6.41,6.41,0,0,0,9.06,0L114.8,67.38a6.41,6.41,0,0,0-9.06-9.06Z"/></g></g></svg>