<svg xmlns="http://www.w3.org/2000/svg" viewBox="0 0 25.06 33.08"><defs><style>.cls-1,.cls-2{fill:none;stroke-miterlimit:10;fill-rule:evenodd;}.cls-1{stroke:#90c31f;}.cls-2{stroke:#ea6000;opacity:0.3;}</style></defs><title>手机</title><g id="图层_2" data-name="图层 2"><g id="图层_1-2" data-name="图层 1"><path class="cls-1" d="M20.77.5H4.3A3.83,3.83,0,0,0,.5,4.35V28.73a3.83,3.83,0,0,0,3.8,3.85H20.77a3.83,3.83,0,0,0,3.8-3.85V4.35A3.83,3.83,0,0,0,20.77.5Z"/><path class="cls-1" d="M18.31,3.71H6.76A2.26,2.26,0,0,0,4.51,6V20.69A2.26,2.26,0,0,0,6.76,23H18.31a2.26,2.26,0,0,0,2.25-2.27V6a2.26,2.26,0,0,0-2.25-2.27Z"/><path class="cls-2" d="M12.53,25.94a2,2,0,1,0,2,2,2,2,0,0,0-2-2Z"/></g></g></svg>