<svg xmlns="http://www.w3.org/2000/svg" xmlns:xlink="http://www.w3.org/1999/xlink" viewBox="0 0 89.92 80"><defs><style>.cls-1{fill-rule:evenodd;fill:url(#未命名的渐变_12);}</style><linearGradient id="未命名的渐变_12" y1="40" x2="89.92" y2="40" gradientUnits="userSpaceOnUse"><stop offset="0" stop-color="#90c31f" stop-opacity="0.4"/><stop offset="1" stop-color="#90c31f"/></linearGradient></defs><title>笑脸</title><g id="图层_2" data-name="图层 2"><g id="图层_1-2" data-name="图层 1"><path class="cls-1" d="M44.87,80A55,55,0,0,1,1.33,58.81,6.13,6.13,0,1,1,11,51.26,43,43,0,0,0,79,51a6.13,6.13,0,0,1,9.74,7.46A54.9,54.9,0,0,1,44.87,80ZM17.24,30.55A9.2,9.2,0,0,1,8,21.36V9.1a9.21,9.21,0,0,1,18.42,0V21.36a9.2,9.2,0,0,1-9.21,9.19Zm55.25,0a9.2,9.2,0,0,1-9.21-9.19V9.1a9.21,9.21,0,0,1,18.42,0V21.36a9.2,9.2,0,0,1-9.21,9.19Z"/></g></g></svg>