<svg xmlns="http://www.w3.org/2000/svg" viewBox="0 0 30 26.46"><defs><style>.cls-1{fill:#00b700;fill-rule:evenodd;}</style></defs><title>微信支付</title><g id="图层_2" data-name="图层 2"><g id="图层_1-2" data-name="图层 1"><path class="cls-1" d="M10.92,16.74a1,1,0,0,1-1.33-.41l-.07-.15-2.73-6a.42.42,0,0,1-.06-.2.5.5,0,0,1,.5-.5.51.51,0,0,1,.29.09l3.22,2.28a1.47,1.47,0,0,0,1.33.15L27.26,5.29A16.06,16.06,0,0,0,15,0C6.72,0,0,5.58,0,12.49a11.8,11.8,0,0,0,5.17,9.45,1,1,0,0,1,.42.81,1,1,0,0,1-.06.33L4.86,25.6a1.19,1.19,0,0,0-.07.37.5.5,0,0,0,.5.5.56.56,0,0,0,.29-.09l3.28-1.9a1.73,1.73,0,0,1,.79-.24,1.24,1.24,0,0,1,.44.07A17.67,17.67,0,0,0,15,25c8.29,0,15-5.6,15-12.5a10.79,10.79,0,0,0-1.71-5.8L11,16.67l-.09.07Z"/></g></g></svg>