<svg xmlns="http://www.w3.org/2000/svg" viewBox="0 0 30 30"><defs><style>.cls-1{fill:#07a0f8;fill-rule:evenodd;}</style></defs><title>支付宝支付</title><g id="图层_2" data-name="图层 2"><g id="图层_1-2" data-name="图层 1"><path class="cls-1" d="M1.52,19.13C1.26,20.44,2,23.56,7,23.56c3.05,0,6-1.85,8.38-5A20.67,20.67,0,0,0,6,16.13c-2.75,0-4.19,1.7-4.45,3Z"/><path class="cls-1" d="M7.52,25.8C2.83,25.8-.3,22.91.07,19.38c.25-2.32,1.84-6.11,8.75-5.46a31.12,31.12,0,0,1,8.28,2A23.42,23.42,0,0,0,19,11.31H5.82V10h6.52V7.66h-8V6.22h8V2.84A.63.63,0,0,1,13,2.31h3.26V6.22h8.48V7.66H16.26V10h6.92a26.7,26.7,0,0,1-2.81,7c1.5.54,6.95,2.23,9.63,3.06V4.34A4.35,4.35,0,0,0,25.66,0H4.34A4.35,4.35,0,0,0,0,4.34V25.66A4.35,4.35,0,0,0,4.34,30H25.66A4.35,4.35,0,0,0,30,25.66v-.39C27.14,24,21.5,21.58,18.29,20c-3,3.6-6.08,5.76-10.77,5.76Z"/></g></g></svg>