<svg xmlns="http://www.w3.org/2000/svg" viewBox="0 0 30 43.59"><defs><style>.cls-1{fill:gray;}.cls-1,.cls-2{fill-rule:evenodd;}.cls-2{fill:#fff;}</style></defs><title>首页主定位</title><g id="图层_2" data-name="图层 2"><g id="图层_1-2" data-name="图层 1"><path class="cls-1" d="M23.66,15.5a8.16,8.16,0,1,0-8.16,8.16,8.16,8.16,0,0,0,8.16-8.16Zm-14.5,0a6.34,6.34,0,1,1,6.34,6.34A6.34,6.34,0,0,1,9.16,15.5ZM30,15.5a14.5,14.5,0,1,0-29,0c0,8,14.5,25.37,14.5,25.37S30,23.51,30,15.5ZM15.5,2.81A12.69,12.69,0,0,1,28.19,15.5c0,7-12.69,22.66-12.69,22.66S2.81,22.51,2.81,15.5A12.69,12.69,0,0,1,15.5,2.81Zm6.41,32.25-1.16,1.56c3.87.45,6.53,1.37,6.53,2.43,0,1.5-5.27,2.72-11.78,2.72S3.72,40.56,3.72,39.06c0-1.07,2.66-2,6.53-2.43L9.09,35.07c-4.28.76-7.18,2.27-7.18,4,0,2.5,6.09,4.53,13.59,4.53s13.59-2,13.59-4.53c0-1.73-2.91-3.23-7.18-4Z"/><path class="cls-2" d="M22.66,14.5a8.16,8.16,0,1,0-8.16,8.16,8.16,8.16,0,0,0,8.16-8.16Zm-14.5,0a6.34,6.34,0,1,1,6.34,6.34A6.34,6.34,0,0,1,8.16,14.5ZM29,14.5a14.5,14.5,0,1,0-29,0c0,8,14.5,25.37,14.5,25.37S29,22.51,29,14.5ZM14.5,1.81A12.69,12.69,0,0,1,27.19,14.5c0,7-12.69,22.66-12.69,22.66S1.81,21.51,1.81,14.5A12.69,12.69,0,0,1,14.5,1.81Zm6.41,32.25-1.16,1.56c3.87.45,6.53,1.37,6.53,2.43,0,1.5-5.27,2.72-11.78,2.72S2.72,39.56,2.72,38.06c0-1.07,2.66-2,6.53-2.43L8.09,34.07c-4.28.76-7.18,2.27-7.18,4,0,2.5,6.09,4.53,13.59,4.53s13.59-2,13.59-4.53c0-1.73-2.91-3.23-7.18-4Z"/></g></g></svg>