<svg xmlns="http://www.w3.org/2000/svg" viewBox="0 0 56 56"><defs><style>.cls-1,.cls-4{fill:#90c31f;}.cls-2{opacity:0.3;}.cls-3{fill:#ea6000;}.cls-4{fill-rule:evenodd;}.cls-5{fill:none;}</style></defs><title>资源 33</title><g id="图层_2" data-name="图层 2"><g id="图层_1-2" data-name="图层 1"><path class="cls-1" d="M29.84,23.68H26.16a3.23,3.23,0,0,0-3.23,3.23v1.38h.92V26.91a2.29,2.29,0,0,1,2.31-2.31h3.69a2.29,2.29,0,0,1,2.31,2.31v1.38h.92V26.91a3.23,3.23,0,0,0-3.23-3.23Z"/><path class="cls-1" d="M35.13,44.45H20.87a2.93,2.93,0,0,1-2.93-2.93V31.77a2.93,2.93,0,0,1,2.93-2.93H35.13a2.93,2.93,0,0,1,2.93,2.93v9.76A2.93,2.93,0,0,1,35.13,44.45ZM20.87,29.68a2.09,2.09,0,0,0-2.09,2.09v9.76a2.09,2.09,0,0,0,2.09,2.09H35.13a2.09,2.09,0,0,0,2.09-2.09V31.77a2.09,2.09,0,0,0-2.09-2.09Z"/><g class="cls-2"><path class="cls-3" d="M28.13,41.28a3.14,3.14,0,1,1,3.14-3.14A3.14,3.14,0,0,1,28.13,41.28Zm0-5.44a2.3,2.3,0,1,0,2.3,2.3A2.3,2.3,0,0,0,28.13,35.84Z"/></g><path class="cls-4" d="M41.47,53.07H14.53A5.49,5.49,0,0,1,9.2,47.74V8.26a5.49,5.49,0,0,1,5.33-5.33H41.47A5.49,5.49,0,0,1,46.8,8.26V47.74a5.49,5.49,0,0,1-5.33,5.33ZM14.53,5.13a3.14,3.14,0,0,0-3.13,3.13V47.74a3.14,3.14,0,0,0,3.13,3.13H41.47a3.14,3.14,0,0,0,3.13-3.13V8.26a3.14,3.14,0,0,0-3.13-3.13Z"/><polygon class="cls-4" points="21.73 12.33 34.27 12.33 34.27 14.53 21.73 14.53 21.73 12.33 21.73 12.33"/><rect id="_切片_" data-name="&lt;切片&gt;" class="cls-5" width="56" height="56"/></g></g></svg>