<svg xmlns="http://www.w3.org/2000/svg" viewBox="0 0 56 56"><defs><style>.cls-1,.cls-6{fill:none;}.cls-1{stroke:#90c31f;stroke-miterlimit:10;stroke-width:2px;}.cls-2{fill:#90c31f;}.cls-3{opacity:0.3;}.cls-4{fill:#ea6000;}.cls-5{fill:#7f7f7f;fill-rule:evenodd;}</style></defs><title>我的资料</title><g id="图层_2" data-name="图层 2"><g id="图层_1-2" data-name="图层 1"><rect class="cls-1" x="1" y="6" width="54" height="44" rx="5.54" ry="5.54"/><rect class="cls-2" x="35" y="17" width="13" height="1" rx="0.5" ry="0.5"/><rect class="cls-2" x="35" y="28" width="13" height="1" rx="0.5" ry="0.5"/><rect class="cls-2" x="35" y="39" width="13" height="1" rx="0.5" ry="0.5"/><g class="cls-3"><path class="cls-4" d="M17.5,30.16a8.33,8.33,0,1,1,8.3-8.33A8.33,8.33,0,0,1,17.5,30.16Zm0-15.76a7.42,7.42,0,1,0,7.4,7.42A7.42,7.42,0,0,0,17.5,14.41Z"/></g><g class="cls-3"><path class="cls-4" d="M17.5,43.5c-8.29,0-12.71-1.69-12.71-2.9a13.15,13.15,0,0,1,6.74-11.41l.23-.12a.46.46,0,0,1,.47,0,9.23,9.23,0,0,0,10.66,0,.45.45,0,0,1,.47,0l.62.36A13.17,13.17,0,0,1,30.21,40.6c0,.91-2.06,1.59-3.28,1.92A37.49,37.49,0,0,1,17.5,43.5Zm-11.8-3c.39.49,3.9,2.06,11.8,2.06S28.91,41,29.3,40.53a12.26,12.26,0,0,0-5.78-10.33l-.34-.2a10.14,10.14,0,0,1-11.24,0A12.24,12.24,0,0,0,5.7,40.53Z"/></g><path class="cls-5" d="M15.78,41.1"/><rect id="_切片_" data-name="&lt;切片&gt;" class="cls-6" x="8.5" y="11.5" width="28" height="28"/><rect id="_切片_2" data-name="&lt;切片&gt;" class="cls-6" width="56" height="56"/></g></g></svg>