<svg xmlns="http://www.w3.org/2000/svg" viewBox="0 0 56 56.8"><defs><style>.cls-1{fill:#ea6000;opacity:0.3;}.cls-1,.cls-2,.cls-3{fill-rule:evenodd;}.cls-2{fill:#90c31f;}.cls-3,.cls-4{fill:none;}.cls-3{stroke:#90c31f;stroke-miterlimit:10;stroke-width:2px;}</style></defs><title>我的保洁</title><g id="图层_2" data-name="图层 2"><g id="图层_1-2" data-name="图层 1"><path class="cls-1" d="M40.35,13.32a3.53,3.53,0,0,0-.55-1.48c-.46-.56-1.67-.56-1.67-.56a3.64,3.64,0,0,0,1.67-.56,2.47,2.47,0,0,0,.65-1.66,2.62,2.62,0,0,0,.65,1.66,2.74,2.74,0,0,0,1.67.56,4.15,4.15,0,0,0-1.85.56,1.59,1.59,0,0,0-.56,1.48Z"/><path class="cls-2" d="M40.35,13.32a2,2,0,0,1,.09.56,2,2,0,0,1-.09-.56Z"/><path class="cls-1" d="M34,10.82A8.68,8.68,0,0,0,32.49,7c-1.2-1.48-4.16-1.48-4.25-1.48s2.87-.18,4.25-1.48A6.51,6.51,0,0,0,34,0s.09,2.68,1.48,4.07S39.7,5.55,39.7,5.55,36.37,5.64,35,7a5.12,5.12,0,0,0-1,3.79Z"/><path class="cls-1" d="M34,10.82l.19.56a3,3,0,0,1-.19-.56Z"/><polygon class="cls-3" points="42.2 55.59 13.99 55.59 9.82 15.82 46.18 15.82 42.2 55.59 42.2 55.59"/><path class="cls-1" d="M28.14,34.41a12.95,12.95,0,0,1-13-13h3.05a10.08,10.08,0,0,0,20.16,0h3.05a13.08,13.08,0,0,1-3.79,9.25,14.21,14.21,0,0,1-9.43,3.79Z"/><rect id="_切片_" data-name="&lt;切片&gt;" class="cls-4" y="0.8" width="56" height="56"/></g></g></svg>