<svg xmlns="http://www.w3.org/2000/svg" viewBox="0 0 56 56"><defs><style>.cls-1,.cls-3,.cls-4,.cls-5,.cls-6{fill:none;}.cls-1,.cls-3,.cls-4{stroke:#90c31f;}.cls-1,.cls-3,.cls-5{stroke-linecap:round;stroke-linejoin:round;}.cls-1,.cls-3,.cls-4,.cls-5{stroke-width:2px;}.cls-2{fill:#ea6000;}.cls-2,.cls-5{opacity:0.3;}.cls-3{fill-rule:evenodd;}.cls-4{stroke-miterlimit:10;}.cls-5{stroke:#ea6000;}</style></defs><title>我的维修</title><g id="图层_2" data-name="图层 2"><g id="图层_1-2" data-name="图层 1"><path class="cls-1" d="M16.73,51.18a8.08,8.08,0,1,1,1.75-16A59.24,59.24,0,0,0,28.55,22.92a12.35,12.35,0,0,1-.84-4.49A12.47,12.47,0,0,1,40.17,6a12.28,12.28,0,0,1,1.75.14l1.93.27L34.19,16.7l2.22,6.2L43,24.09l9.13-9.78.34,2A12.44,12.44,0,0,1,35.95,30.15,47.92,47.92,0,0,0,24.41,40.61a8.08,8.08,0,0,1-7.69,10.56Z"/><circle class="cls-2" cx="16.73" cy="43.1" r="2.77"/><path class="cls-3" d="M22,28l-5.94-6a1.12,1.12,0,0,0-1.59,0h0a1.12,1.12,0,0,1-1.58,0L3.71,12.93a1.12,1.12,0,0,1,0-1.58l6.5-6.59a1.12,1.12,0,0,1,1.58,0L21,13.81a1.12,1.12,0,0,1,0,1.58l0,0a1.12,1.12,0,0,0,0,1.57l5.18,5.25a1.12,1.12,0,0,1,0,1.57L22,28Z"/><rect class="cls-4" x="30.38" y="35.6" width="18.01" height="13" rx="3.81" ry="3.81" transform="translate(44.36 -15.33) rotate(48.04)"/><line class="cls-5" x1="42" y1="45.22" x2="36.5" y2="39.72"/><rect id="_切片_" data-name="&lt;切片&gt;" class="cls-6" width="56" height="56"/></g></g></svg>