<svg xmlns="http://www.w3.org/2000/svg" viewBox="0 0 56 56"><defs><style>.cls-1,.cls-4{opacity:0.3;}.cls-2,.cls-4{fill:#ea6000;}.cls-3,.cls-5{fill:none;}.cls-3{stroke:#90c31f;stroke-linecap:round;stroke-linejoin:round;stroke-width:2px;}</style></defs><title>我的租赁</title><g id="图层_2" data-name="图层 2"><g id="图层_1-2" data-name="图层 1"><g class="cls-1"><path class="cls-2" d="M32.76,2H23.24A8.34,8.34,0,0,0,14.9,10.3v3.57h2.38V10.3a5.91,5.91,0,0,1,6-6h9.52a5.91,5.91,0,0,1,6,6v3.57H41.1V10.3A8.34,8.34,0,0,0,32.76,2Z"/></g><path class="cls-3" d="M9,16.25,3,50.78a2.38,2.38,0,0,0,2.38,2.38H50.62A2.38,2.38,0,0,0,53,50.78L47,16.25Z"/><circle class="cls-4" cx="16.1" cy="22.8" r="2.38"/><circle class="cls-4" cx="39.9" cy="22.8" r="2.38"/><rect id="_切片_" data-name="&lt;切片&gt;" class="cls-5" width="56" height="56"/></g></g></svg>