<svg xmlns="http://www.w3.org/2000/svg" viewBox="0 0 56 56"><defs><style>.cls-1{fill:none;}.cls-2{fill:#ea6000;opacity:0.3;}.cls-2,.cls-3{fill-rule:evenodd;}.cls-3{fill:#90c31f;}</style></defs><title>投诉建议</title><g id="图层_2" data-name="图层 2"><g id="图层_1-2" data-name="图层 1"><rect id="_切片_" data-name="&lt;切片&gt;" class="cls-1" width="56" height="56"/><path class="cls-2" d="M48.41,9.54a3.32,3.32,0,0,0-4.68,0L29.16,24.12l4.68,4.68L48.41,14.22a3.32,3.32,0,0,0,0-4.68ZM27.71,29.43a.7.7,0,0,0,.82.82l4.74-.87L28.59,24.7l-.88,4.74Z"/><path class="cls-3" d="M44.13,47.41A1.56,1.56,0,0,1,42.57,49h-32A1.56,1.56,0,0,1,9,47.41V8.58A1.56,1.56,0,0,1,10.52,7h32a1.54,1.54,0,0,1,1.29.69L45.54,6a3.88,3.88,0,0,0-3-1.37h-32a3.91,3.91,0,0,0-3.9,3.91V47.42a3.92,3.92,0,0,0,3.91,3.91h32a3.92,3.92,0,0,0,3.91-3.91V17.92l-2.36,2.36V47.41Z"/><path class="cls-3" d="M38.86,36.05H14.24a1,1,0,0,0-.94.94v.59a1,1,0,0,0,.94.94H38.86a1,1,0,0,0,.94-.94V37a1,1,0,0,0-.94-.94ZM34.15,17.46H14.24a1,1,0,0,0-.94.94V19a1,1,0,0,0,.94.94H31.68l2.47-2.47Zm-.06,12.71-6.42,1.19a.94.94,0,0,1-1.1-1.1l.07-.4H14.24a1,1,0,0,0-.94.94v.59a1,1,0,0,0,.94.94H38.86a1,1,0,0,0,.94-.94V30.8a1,1,0,0,0-.94-.94H33.77l.31.31Zm-19.85-4H25.65l2.47-2.47H14.24a1,1,0,0,0-.94.94v.59a1,1,0,0,0,.94.94Zm25.57-.94v-.55l-1.49,1.49h.55a1,1,0,0,0,.94-.94Z"/></g></g></svg>