<svg xmlns="http://www.w3.org/2000/svg" viewBox="0 0 56 56"><defs><style>.cls-1{fill:#90c31f;}.cls-1,.cls-2{fill-rule:evenodd;}.cls-2{fill:#ea6000;opacity:0.3;}.cls-3{fill:none;}</style></defs><title>生活缴费_1</title><g id="图层_2" data-name="图层 2"><g id="图层_1-2" data-name="图层 1"><path class="cls-1" d="M51.93,44.63H40a1.42,1.42,0,0,0-.71.19L28,51.54H11.17a2.85,2.85,0,0,1-2.85-2.85V47.63a2.86,2.86,0,0,1,2.85-2.85h8.23a3.38,3.38,0,0,0,.88,1.58l.35.35a3.37,3.37,0,0,0,4.69.07l9.41-7.17a1.38,1.38,0,1,0-1.67-2.2l-9.47,7.22-.14.12a.62.62,0,0,1-.86,0l-.35-.35a.6.6,0,0,1-.18-.43.58.58,0,0,1,.17-.42L37.11,29H51.93a1.38,1.38,0,1,0,0-2.77H47a22.79,22.79,0,0,0,.13-2.29,22.21,22.21,0,1,0-44.42,0c0,4.4,1.79,11.05,5.12,14.73a1.38,1.38,0,0,0,2,.1,1.39,1.39,0,0,0,.1-2c-2.72-3-4.41-9-4.41-12.88A19.45,19.45,0,1,1,44.19,26.2H36.62a1.37,1.37,0,0,0-.89.35,1.47,1.47,0,0,0-.32.21L20.29,41.59a3.5,3.5,0,0,0-.35.43H11.17a5.62,5.62,0,0,0-5.61,5.61v1.05a5.62,5.62,0,0,0,5.61,5.61H28.41a1.41,1.41,0,0,0,.71-.2l11.24-6.7H51.93a1.38,1.38,0,0,0,0-2.77Z"/><path class="cls-2" d="M18.17,25.58a1.38,1.38,0,0,0,0,2.77h5v3.5a1.38,1.38,0,0,0,2.77,0v-3.5h5a1.38,1.38,0,1,0,0-2.77h-5V23.13h5a1.38,1.38,0,1,0,0-2.77H28.18l2.43-5a1.38,1.38,0,1,0-2.5-1.19l-3,6.24H23.65l-3-6.24a1.38,1.38,0,0,0-2.49,1.2l2.43,5H18.17a1.38,1.38,0,0,0,0,2.77h5v2.45Z"/><rect id="_切片_" data-name="&lt;切片&gt;" class="cls-3" width="56" height="56"/></g></g></svg>