<svg xmlns="http://www.w3.org/2000/svg" xmlns:xlink="http://www.w3.org/1999/xlink" viewBox="0 0 100 64.13"><defs><style>.cls-1,.cls-6{opacity:0.4;}.cls-2{fill:#8dc21f;}.cls-3{fill:#fc5890;}.cls-10,.cls-11,.cls-12,.cls-13,.cls-14,.cls-15,.cls-16,.cls-17,.cls-18,.cls-19,.cls-3,.cls-4,.cls-5,.cls-7,.cls-8,.cls-9{fill-rule:evenodd;}.cls-4{fill:#889bfc;}.cls-4,.cls-5{opacity:0.3;}.cls-5{fill:#da99d2;}.cls-6{fill:#e09cd1;}.cls-7{fill:url(#未命名的渐变_26);}.cls-8{fill:url(#未命名的渐变_26-2);}.cls-9{fill:url(#未命名的渐变_26-3);}.cls-10{fill:url(#未命名的渐变_26-4);}.cls-11{fill:url(#未命名的渐变_26-5);}.cls-12{fill:url(#未命名的渐变_26-6);}.cls-13{fill:url(#未命名的渐变_26-7);}.cls-14{fill:url(#未命名的渐变_26-8);}.cls-15{fill:url(#未命名的渐变_26-9);}.cls-16{fill:url(#未命名的渐变_26-10);}.cls-17{fill:url(#未命名的渐变_26-11);}.cls-18{fill:url(#未命名的渐变_26-12);}.cls-19{fill:url(#未命名的渐变_26-13);}</style><linearGradient id="未命名的渐变_26" x1="19.48" y1="28.2" x2="55.25" y2="28.2" gradientUnits="userSpaceOnUse"><stop offset="0" stop-color="#fbc993" stop-opacity="0.1"/><stop offset="1" stop-color="#f89b5b" stop-opacity="0.9"/></linearGradient><linearGradient id="未命名的渐变_26-2" x1="24.8" y1="19.01" x2="49.83" y2="19.01" xlink:href="#未命名的渐变_26"/><linearGradient id="未命名的渐变_26-3" x1="58.58" y1="36.55" x2="69.29" y2="36.55" xlink:href="#未命名的渐变_26"/><linearGradient id="未命名的渐变_26-4" x1="61.87" y1="17.66" x2="65.3" y2="17.66" xlink:href="#未命名的渐变_26"/><linearGradient id="未命名的渐变_26-5" x1="54.8" y1="50.88" x2="81.54" y2="50.88" xlink:href="#未命名的渐变_26"/><linearGradient id="未命名的渐变_26-6" x1="36.52" y1="8.32" x2="38.12" y2="8.32" xlink:href="#未命名的渐变_26"/><linearGradient id="未命名的渐变_26-7" x1="25.2" y1="11.44" x2="29.88" y2="11.44" xlink:href="#未命名的渐变_26"/><linearGradient id="未命名的渐变_26-8" x1="18.46" y1="19.73" x2="24.51" y2="19.73" xlink:href="#未命名的渐变_26"/><linearGradient id="未命名的渐变_26-9" x1="44.57" y1="11.1" x2="49.18" y2="11.1" xlink:href="#未命名的渐变_26"/><linearGradient id="未命名的渐变_26-10" x1="50.76" y1="20.36" x2="56.83" y2="20.36" xlink:href="#未命名的渐变_26"/><linearGradient id="未命名的渐变_26-11" x1="30.09" y1="38.05" x2="33.05" y2="38.05" xlink:href="#未命名的渐变_26"/><linearGradient id="未命名的渐变_26-12" x1="41.59" y1="38.05" x2="44.55" y2="38.05" xlink:href="#未命名的渐变_26"/><linearGradient id="未命名的渐变_26-13" x1="20.6" y1="46.77" x2="53.68" y2="46.77" xlink:href="#未命名的渐变_26"/></defs><title>品质保洁</title><g id="图层_2" data-name="图层 2"><g id="图层_1-2" data-name="图层 1"><g class="cls-1"><path class="cls-2" d="M9.34,5.93A1.17,1.17,0,0,1,8.17,4.76V1.49a1.17,1.17,0,0,1,2.33,0V4.76A1.17,1.17,0,0,1,9.34,5.93Z"/><path class="cls-2" d="M9.34,19a1.17,1.17,0,0,1-1.17-1.17V14.56a1.17,1.17,0,1,1,2.33,0v3.27A1.17,1.17,0,0,1,9.34,19Z"/><path class="cls-2" d="M17.51,10.83H14.24a1.17,1.17,0,0,1,0-2.33h3.27a1.17,1.17,0,1,1,0,2.33Z"/><path class="cls-2" d="M4.43,10.83H1.17a1.17,1.17,0,1,1,0-2.33H4.43a1.17,1.17,0,1,1,0,2.33Z"/><path class="cls-2" d="M15.11,16.61a1.16,1.16,0,0,1-.83-.34L12,14a1.17,1.17,0,0,1,1.65-1.65l2.31,2.31a1.17,1.17,0,0,1-.83,2Z"/><path class="cls-2" d="M5.87,7.36A1.16,1.16,0,0,1,5,7L2.73,4.71A1.17,1.17,0,0,1,4.38,3.06L6.7,5.37a1.17,1.17,0,0,1-.83,2Z"/><path class="cls-2" d="M3.56,16.61a1.17,1.17,0,0,1-.83-2L5,12.3A1.17,1.17,0,0,1,6.7,14L4.38,16.26A1.16,1.16,0,0,1,3.56,16.61Z"/><path class="cls-2" d="M12.8,7.36a1.17,1.17,0,0,1-.83-2l2.31-2.31a1.17,1.17,0,1,1,1.65,1.65L13.63,7A1.16,1.16,0,0,1,12.8,7.36Z"/></g><path class="cls-3" d="M79.32,1.76h0A1.76,1.76,0,0,0,77.57,0a1.74,1.74,0,0,0-1.26.53A1.74,1.74,0,0,0,75.05,0a1.76,1.76,0,0,0-1.28,3l0,0,0,0h0L76,5.14a.39.39,0,0,0,.55,0C76.66,5.07,78.4,3.4,78.8,3h0l0,0A1.75,1.75,0,0,0,79.32,1.76ZM75.06.88a.9.9,0,0,0-.9.9.13.13,0,1,1-.27,0A1.17,1.17,0,0,1,75.06.61h0a.14.14,0,0,1,0,.27Z"/><path class="cls-4" d="M89.47,54.62a1.64,1.64,0,0,0,0,3.28A1.64,1.64,0,0,0,89.47,54.62Z"/><path class="cls-5" d="M98.41,54.62a1.64,1.64,0,0,0,0,3.28A1.64,1.64,0,0,0,98.41,54.62Z"/><circle class="cls-6" cx="3.94" cy="61.33" r="2.81"/><path class="cls-7" d="M55.25,28.2a2,2,0,0,1-2,2H21.5a2,2,0,0,1,0-4.06H53.22a2,2,0,0,1,2,2Z"/><path class="cls-8" d="M49.83,25.28a12.52,12.52,0,0,0-25-.05l25,.05Z"/><path class="cls-9" d="M69.29,36.55c0,.83-.41,1.5-.91,1.5H59.5c-.5,0-.91-.67-.91-1.5s.41-1.5.91-1.5h8.88c.5,0,.91.67.91,1.5Z"/><path class="cls-10" d="M65.3,34V3.36a1.74,1.74,0,1,0-3.43,0V34Z"/><path class="cls-11" d="M72.79,52.24c2-14.08-3.43-13.31-3.43-13.31H68.19c2,1.29,2.08,4.21,2.08,4.21-.08-2.72-3-4.21-3-4.21h-1s1.3,1,1.3,2.09c0,0-1.07-2.09-2.29-2.08l-4.89,0s-2.06.2-3.66,3.81c0,0,1.39-3.37,2.91-3.81h-.29a4.07,4.07,0,0,0-3.74,2.65,31.92,31.92,0,0,0-.77,9.23h0s-.08,8.38,4.86,11.32a8.86,8.86,0,0,1-2-3.2,9.74,9.74,0,0,0,4.39,3.09s10.06,3.85,19.47-6c0,0-9.82,3.72-8.75-3.84Z"/><polygon class="cls-12" points="36.52 5.39 38.12 5.39 38.12 11.25 36.52 11.25 36.52 5.39 36.52 5.39"/><polygon class="cls-13" points="29.88 13.37 28.58 14.29 25.2 9.51 26.5 8.59 29.88 13.37 29.88 13.37"/><polygon class="cls-14" points="24.51 19.98 23.97 21.48 18.46 19.48 19 17.98 24.51 19.98 24.51 19.98"/><polygon class="cls-15" points="45.89 13.97 44.57 13.07 47.86 8.23 49.18 9.12 45.89 13.97 45.89 13.97"/><polygon class="cls-16" points="51.2 21.93 50.76 20.4 56.39 18.8 56.83 20.33 51.2 21.93 51.2 21.93"/><path class="cls-17" d="M33.05,38.05a1.48,1.48,0,1,0-1.48,1.48,1.48,1.48,0,0,0,1.48-1.48Z"/><path class="cls-18" d="M43.07,36.57a1.48,1.48,0,1,0,1.48,1.48,1.48,1.48,0,0,0-1.48-1.48Z"/><path class="cls-19" d="M20.6,31.34,27.53,62.2h19.9l6.26-30.86H20.6m23.1,9.09a6.34,6.34,0,0,1-12.67,0,2.46,2.46,0,1,1,1,0,5.33,5.33,0,0,0,10.63,0,2.47,2.47,0,1,1,1,0Z"/></g></g></svg>