<svg xmlns="http://www.w3.org/2000/svg" xmlns:xlink="http://www.w3.org/1999/xlink" viewBox="0 0 100 64.13"><defs><style>.cls-1,.cls-6{opacity:0.4;}.cls-2{fill:#8dc21f;}.cls-3{fill:#fc5890;}.cls-3,.cls-4,.cls-5,.cls-7,.cls-8{fill-rule:evenodd;}.cls-4{fill:#889bfc;}.cls-4,.cls-5{opacity:0.3;}.cls-5{fill:#da99d2;}.cls-6{fill:#e09cd1;}.cls-7{fill:url(#未命名的渐变_30);}.cls-8{fill:url(#未命名的渐变_30-2);}</style><linearGradient id="未命名的渐变_30" x1="17.28" y1="32.07" x2="82.72" y2="32.07" gradientUnits="userSpaceOnUse"><stop offset="0" stop-color="#beb3e5" stop-opacity="0.1"/><stop offset="1" stop-color="#beb3e5" stop-opacity="0.9"/></linearGradient><linearGradient id="未命名的渐变_30-2" x1="35.93" y1="56.93" x2="43.78" y2="56.93" xlink:href="#未命名的渐变_30"/></defs><title>我要租房</title><g id="图层_2" data-name="图层 2"><g id="图层_1-2" data-name="图层 1"><g class="cls-1"><path class="cls-2" d="M9.34,5.93A1.17,1.17,0,0,1,8.17,4.76V1.49a1.17,1.17,0,0,1,2.33,0V4.76A1.17,1.17,0,0,1,9.34,5.93Z"/><path class="cls-2" d="M9.34,19a1.17,1.17,0,0,1-1.17-1.17V14.56a1.17,1.17,0,1,1,2.33,0v3.27A1.17,1.17,0,0,1,9.34,19Z"/><path class="cls-2" d="M17.51,10.83H14.24a1.17,1.17,0,0,1,0-2.33h3.27a1.17,1.17,0,1,1,0,2.33Z"/><path class="cls-2" d="M4.43,10.83H1.17a1.17,1.17,0,1,1,0-2.33H4.43a1.17,1.17,0,1,1,0,2.33Z"/><path class="cls-2" d="M15.11,16.61a1.16,1.16,0,0,1-.83-.34L12,14a1.17,1.17,0,0,1,1.65-1.65l2.31,2.31a1.17,1.17,0,0,1-.83,2Z"/><path class="cls-2" d="M5.87,7.36A1.16,1.16,0,0,1,5,7L2.73,4.71A1.17,1.17,0,0,1,4.38,3.06L6.7,5.37a1.17,1.17,0,0,1-.83,2Z"/><path class="cls-2" d="M3.56,16.61a1.17,1.17,0,0,1-.83-2L5,12.3A1.17,1.17,0,0,1,6.7,14L4.38,16.26A1.16,1.16,0,0,1,3.56,16.61Z"/><path class="cls-2" d="M12.8,7.36a1.17,1.17,0,0,1-.83-2l2.31-2.31a1.17,1.17,0,1,1,1.65,1.65L13.63,7A1.16,1.16,0,0,1,12.8,7.36Z"/></g><path class="cls-3" d="M79.32,1.76h0A1.76,1.76,0,0,0,77.57,0a1.74,1.74,0,0,0-1.26.53A1.74,1.74,0,0,0,75.05,0a1.76,1.76,0,0,0-1.28,3l0,0,0,0h0L76,5.14a.39.39,0,0,0,.55,0C76.66,5.07,78.4,3.4,78.8,3h0l0,0A1.75,1.75,0,0,0,79.32,1.76ZM75.06.88a.9.9,0,0,0-.9.9.13.13,0,1,1-.27,0A1.17,1.17,0,0,1,75.06.61h0a.14.14,0,0,1,0,.27Z"/><path class="cls-4" d="M89.47,54.62a1.64,1.64,0,0,0,0,3.28A1.64,1.64,0,0,0,89.47,54.62Z"/><path class="cls-5" d="M98.41,54.62a1.64,1.64,0,0,0,0,3.28A1.64,1.64,0,0,0,98.41,54.62Z"/><circle class="cls-6" cx="3.94" cy="61.33" r="2.81"/><path class="cls-7" d="M76.93,21.93H62.41V6.44A5.78,5.78,0,0,0,56.63.66H23.07a5.78,5.78,0,0,0-5.78,5.78V57.69a5.88,5.88,0,0,0,6.18,5.78h7.93V48.57a2.89,2.89,0,0,1,2.89-2.89H45.84a2.89,2.89,0,0,1,2.89,2.89v14.9h28.2a5.78,5.78,0,0,0,5.79-5.78v-30a5.78,5.78,0,0,0-5.79-5.78Zm-39.62,19h-5v-5h5v5Zm0-10.85h-5V25h5v5Zm0-10.85h-5v-5h5v5Zm10.51,21.7h-5v-5h5v5Zm0-10.85h-5V25h5v5Zm0-10.85h-5v-5h5v5ZM72.29,55.71h-5v-5h5v5Zm0-10.85h-5v-5h5v5Zm0-10.85h-5V29h5v5Z"/><path class="cls-8" d="M41.17,50.39H38.55A2.62,2.62,0,0,0,35.93,53V63.48h7.85V53a2.62,2.62,0,0,0-2.62-2.62Z"/></g></g></svg>