<svg xmlns="http://www.w3.org/2000/svg" xmlns:xlink="http://www.w3.org/1999/xlink" viewBox="0 0 100 64.13"><defs><style>.cls-1,.cls-6{opacity:0.4;}.cls-2{fill:#8dc21f;}.cls-3{fill:#fc5890;}.cls-3,.cls-4,.cls-5,.cls-7,.cls-8,.cls-9{fill-rule:evenodd;}.cls-4{fill:#889bfc;}.cls-4,.cls-5{opacity:0.3;}.cls-5{fill:#da99d2;}.cls-6{fill:#e09cd1;}.cls-7{fill:url(#未命名的渐变_26);}.cls-8{fill:url(#未命名的渐变_26-2);}.cls-9{fill:url(#未命名的渐变_26-3);}</style><linearGradient id="未命名的渐变_26" x1="33.54" y1="20.4" x2="33.54" y2="20.4" gradientUnits="userSpaceOnUse"><stop offset="0" stop-color="#fbc993" stop-opacity="0.1"/><stop offset="1" stop-color="#f89b5b" stop-opacity="0.9"/></linearGradient><linearGradient id="未命名的渐变_26-2" x1="27.39" y1="9.72" x2="72.42" y2="9.72" xlink:href="#未命名的渐变_26"/><linearGradient id="未命名的渐变_26-3" x1="18.54" y1="41.97" x2="81.46" y2="41.97" xlink:href="#未命名的渐变_26"/></defs><title>生活缴费</title><g id="图层_2" data-name="图层 2"><g id="图层_1-2" data-name="图层 1"><g class="cls-1"><path class="cls-2" d="M9.34,5.93A1.17,1.17,0,0,1,8.17,4.76V1.49a1.17,1.17,0,0,1,2.33,0V4.76A1.17,1.17,0,0,1,9.34,5.93Z"/><path class="cls-2" d="M9.34,19a1.17,1.17,0,0,1-1.17-1.17V14.56a1.17,1.17,0,1,1,2.33,0v3.27A1.17,1.17,0,0,1,9.34,19Z"/><path class="cls-2" d="M17.51,10.83H14.24a1.17,1.17,0,0,1,0-2.33h3.27a1.17,1.17,0,1,1,0,2.33Z"/><path class="cls-2" d="M4.43,10.83H1.17a1.17,1.17,0,1,1,0-2.33H4.43a1.17,1.17,0,1,1,0,2.33Z"/><path class="cls-2" d="M15.11,16.61a1.16,1.16,0,0,1-.83-.34L12,14a1.17,1.17,0,0,1,1.65-1.65l2.31,2.31a1.17,1.17,0,0,1-.83,2Z"/><path class="cls-2" d="M5.87,7.36A1.16,1.16,0,0,1,5,7L2.73,4.71A1.17,1.17,0,0,1,4.38,3.06L6.7,5.37a1.17,1.17,0,0,1-.83,2Z"/><path class="cls-2" d="M3.56,16.61a1.17,1.17,0,0,1-.83-2L5,12.3A1.17,1.17,0,0,1,6.7,14L4.38,16.26A1.16,1.16,0,0,1,3.56,16.61Z"/><path class="cls-2" d="M12.8,7.36a1.17,1.17,0,0,1-.83-2l2.31-2.31a1.17,1.17,0,1,1,1.65,1.65L13.63,7A1.16,1.16,0,0,1,12.8,7.36Z"/></g><path class="cls-3" d="M79.32,1.76h0A1.76,1.76,0,0,0,77.57,0a1.74,1.74,0,0,0-1.26.53A1.74,1.74,0,0,0,75.05,0a1.76,1.76,0,0,0-1.28,3l0,0,0,0h0L76,5.14a.39.39,0,0,0,.55,0C76.66,5.07,78.4,3.4,78.8,3h0l0,0A1.75,1.75,0,0,0,79.32,1.76ZM75.06.88a.9.9,0,0,0-.9.9.13.13,0,1,1-.27,0A1.17,1.17,0,0,1,75.06.61h0a.14.14,0,0,1,0,.27Z"/><path class="cls-4" d="M89.47,54.62a1.64,1.64,0,0,0,0,3.28A1.64,1.64,0,0,0,89.47,54.62Z"/><path class="cls-5" d="M98.41,54.62a1.64,1.64,0,0,0,0,3.28A1.64,1.64,0,0,0,98.41,54.62Z"/><circle class="cls-6" cx="3.94" cy="61.33" r="2.81"/><path class="cls-7" d="M33.54,20.4Z"/><path class="cls-8" d="M32.91,18.83H67.2l4.47-10.4c1.92-3.15,0-5.52-3.67-4.24l-2.56.9a4.09,4.09,0,0,1-5-1.86C59,.11,55.56-.27,53.14,2.31l-1,1a3.44,3.44,0,0,1-5,.09l-1-1C43.75,0,40.33.3,38.95,3.31A4,4,0,0,1,34.08,5l-2.36-.78C28,3,26.16,5.43,28.27,8.68l4.64,10.15Z"/><path class="cls-9" d="M76.29,36.76c-.73-1.5-1.52-3.05-2.36-4.65C72.3,29,70.56,25.93,68.82,23c-.54-.93-1.06-1.79-1.52-2.55H32.83c-.47.77-1,1.63-1.53,2.55-1.76,3-3.52,6.07-5.16,9.16-.85,1.6-1.65,3.15-2.38,4.64-3.33,6.78-5.23,12-5.23,15.23,0,8.23,4.07,11.54,11.6,11.54H69.87c7.52,0,11.6-3.31,11.6-11.54,0-3.24-1.88-8.45-5.18-15.22ZM45.11,34.53a2.81,2.81,0,0,0,.09.7c.43,1.72,2.37,3.06,4.72,3.06,3.44,0,6.45,2.06,7.17,5a5.51,5.51,0,0,1,.16,1.32c0,3.19-2.7,5.74-6.17,6.22v.67a1.27,1.27,0,0,1-2.54,0v-.7c-3.36-.55-6-3.07-6-6.18a1.27,1.27,0,1,1,2.54,0c0,1.71,1.5,3.21,3.6,3.64a1.31,1.31,0,0,1,2.21,0c2.2-.36,3.79-1.91,3.79-3.67a3,3,0,0,0-.09-.7c-.43-1.72-2.37-3.06-4.71-3.06-3.45,0-6.46-2.06-7.18-5a5.31,5.31,0,0,1-.16-1.31c0-3.12,2.59-5.64,6-6.19V26.75a1.27,1.27,0,1,1,2.54,0v1.55c3.47.48,6.17,3,6.17,6.22a1.27,1.27,0,0,1-2.54,0c0-1.72-1.52-3.24-3.64-3.65V31a1.27,1.27,0,0,1-2.54,0v-.1c-2,.47-3.42,1.94-3.42,3.6Z"/></g></g></svg>