<svg xmlns="http://www.w3.org/2000/svg" xmlns:xlink="http://www.w3.org/1999/xlink" viewBox="0 0 100 64.13"><defs><style>.cls-1,.cls-6{opacity:0.4;}.cls-2{fill:#8dc21f;}.cls-3{fill:#fc5890;}.cls-3,.cls-4,.cls-5,.cls-7{fill-rule:evenodd;}.cls-4{fill:#889bfc;}.cls-4,.cls-5{opacity:0.3;}.cls-5{fill:#da99d2;}.cls-6{fill:#e09cd1;}.cls-7{fill:url(#未命名的渐变_30);}</style><linearGradient id="未命名的渐变_30" x1="16.58" y1="32.07" x2="83.42" y2="32.07" gradientUnits="userSpaceOnUse"><stop offset="0" stop-color="#beb3e5" stop-opacity="0.1"/><stop offset="1" stop-color="#beb3e5" stop-opacity="0.9"/></linearGradient></defs><title>租赁商城</title><g id="图层_2" data-name="图层 2"><g id="图层_1-2" data-name="图层 1"><g class="cls-1"><path class="cls-2" d="M9.34,5.93A1.17,1.17,0,0,1,8.17,4.76V1.49a1.17,1.17,0,0,1,2.33,0V4.76A1.17,1.17,0,0,1,9.34,5.93Z"/><path class="cls-2" d="M9.34,19a1.17,1.17,0,0,1-1.17-1.17V14.56a1.17,1.17,0,1,1,2.33,0v3.27A1.17,1.17,0,0,1,9.34,19Z"/><path class="cls-2" d="M17.51,10.83H14.24a1.17,1.17,0,0,1,0-2.33h3.27a1.17,1.17,0,1,1,0,2.33Z"/><path class="cls-2" d="M4.43,10.83H1.17a1.17,1.17,0,1,1,0-2.33H4.43a1.17,1.17,0,1,1,0,2.33Z"/><path class="cls-2" d="M15.11,16.61a1.16,1.16,0,0,1-.83-.34L12,14a1.17,1.17,0,0,1,1.65-1.65l2.31,2.31a1.17,1.17,0,0,1-.83,2Z"/><path class="cls-2" d="M5.87,7.36A1.16,1.16,0,0,1,5,7L2.73,4.71A1.17,1.17,0,0,1,4.38,3.06L6.7,5.37a1.17,1.17,0,0,1-.83,2Z"/><path class="cls-2" d="M3.56,16.61a1.17,1.17,0,0,1-.83-2L5,12.3A1.17,1.17,0,0,1,6.7,14L4.38,16.26A1.16,1.16,0,0,1,3.56,16.61Z"/><path class="cls-2" d="M12.8,7.36a1.17,1.17,0,0,1-.83-2l2.31-2.31a1.17,1.17,0,1,1,1.65,1.65L13.63,7A1.16,1.16,0,0,1,12.8,7.36Z"/></g><path class="cls-3" d="M79.32,1.76h0A1.76,1.76,0,0,0,77.57,0a1.74,1.74,0,0,0-1.26.53A1.74,1.74,0,0,0,75.05,0a1.76,1.76,0,0,0-1.28,3l0,0,0,0h0L76,5.14a.39.39,0,0,0,.55,0C76.66,5.07,78.4,3.4,78.8,3h0l0,0A1.75,1.75,0,0,0,79.32,1.76ZM75.06.88a.9.9,0,0,0-.9.9.13.13,0,1,1-.27,0A1.17,1.17,0,0,1,75.06.61h0a.14.14,0,0,1,0,.27Z"/><path class="cls-4" d="M89.47,54.62a1.64,1.64,0,0,0,0,3.28A1.64,1.64,0,0,0,89.47,54.62Z"/><path class="cls-5" d="M98.41,54.62a1.64,1.64,0,0,0,0,3.28A1.64,1.64,0,0,0,98.41,54.62Z"/><circle class="cls-6" cx="3.94" cy="61.33" r="2.81"/><path class="cls-7" d="M69.17,53.76a3.91,3.91,0,1,0,3.91,3.91,3.91,3.91,0,0,0-3.91-3.91Zm-25,0A3.91,3.91,0,1,0,48,57.67a3.92,3.92,0,0,0-3.91-3.91ZM35,40.78l-3.86-24C28.69,2.71,16.71,2.55,16.59,2.55V6.28c.37,0,9,.23,10.89,11.15L31.3,41.19c.2,3.19,2.4,9.22,9.33,9.22H77.29V46.68H40.63c-5,0-5.56-5.14-5.62-5.89ZM78.19,15.17c-7,0-37.24-3.73-37.24-3.73S33.48,9.92,34.74,18,37.9,37.43,37.9,37.43s1.53,6.14,8,6.14H72c5.84,0,7.88-7,7.88-7l3.27-15.37s2-6-5-6Z"/></g></g></svg>