<svg xmlns="http://www.w3.org/2000/svg" xmlns:xlink="http://www.w3.org/1999/xlink" viewBox="0 0 100 64.13"><defs><style>.cls-1,.cls-6{opacity:0.4;}.cls-2{fill:#8dc21f;}.cls-3{fill:#fc5890;}.cls-3,.cls-4,.cls-5,.cls-7{fill-rule:evenodd;}.cls-4{fill:#889bfc;}.cls-4,.cls-5{opacity:0.3;}.cls-5{fill:#da99d2;}.cls-6{fill:#e09cd1;}.cls-7{fill:url(#未命名的渐变_22);}</style><linearGradient id="未命名的渐变_22" x1="20.63" y1="32.07" x2="79.37" y2="32.07" gradientUnits="userSpaceOnUse"><stop offset="0" stop-color="#f47b84" stop-opacity="0.1"/><stop offset="1" stop-color="#f57584" stop-opacity="0.9"/></linearGradient></defs><title>闪电维修</title><g id="图层_2" data-name="图层 2"><g id="图层_1-2" data-name="图层 1"><g class="cls-1"><path class="cls-2" d="M9.34,5.93A1.17,1.17,0,0,1,8.17,4.76V1.49a1.17,1.17,0,0,1,2.33,0V4.76A1.17,1.17,0,0,1,9.34,5.93Z"/><path class="cls-2" d="M9.34,19a1.17,1.17,0,0,1-1.17-1.17V14.56a1.17,1.17,0,1,1,2.33,0v3.27A1.17,1.17,0,0,1,9.34,19Z"/><path class="cls-2" d="M17.51,10.83H14.24a1.17,1.17,0,0,1,0-2.33h3.27a1.17,1.17,0,1,1,0,2.33Z"/><path class="cls-2" d="M4.43,10.83H1.17a1.17,1.17,0,1,1,0-2.33H4.43a1.17,1.17,0,1,1,0,2.33Z"/><path class="cls-2" d="M15.11,16.61a1.16,1.16,0,0,1-.83-.34L12,14a1.17,1.17,0,0,1,1.65-1.65l2.31,2.31a1.17,1.17,0,0,1-.83,2Z"/><path class="cls-2" d="M5.87,7.36A1.16,1.16,0,0,1,5,7L2.73,4.71A1.17,1.17,0,0,1,4.38,3.06L6.7,5.37a1.17,1.17,0,0,1-.83,2Z"/><path class="cls-2" d="M3.56,16.61a1.17,1.17,0,0,1-.83-2L5,12.3A1.17,1.17,0,0,1,6.7,14L4.38,16.26A1.16,1.16,0,0,1,3.56,16.61Z"/><path class="cls-2" d="M12.8,7.36a1.17,1.17,0,0,1-.83-2l2.31-2.31a1.17,1.17,0,1,1,1.65,1.65L13.63,7A1.16,1.16,0,0,1,12.8,7.36Z"/></g><path class="cls-3" d="M79.32,1.76h0A1.76,1.76,0,0,0,77.57,0a1.74,1.74,0,0,0-1.26.53A1.74,1.74,0,0,0,75.05,0a1.76,1.76,0,0,0-1.28,3l0,0,0,0h0L76,5.14a.39.39,0,0,0,.55,0C76.66,5.07,78.4,3.4,78.8,3h0l0,0A1.75,1.75,0,0,0,79.32,1.76ZM75.06.88a.9.9,0,0,0-.9.9.13.13,0,1,1-.27,0A1.17,1.17,0,0,1,75.06.61h0a.14.14,0,0,1,0,.27Z"/><path class="cls-4" d="M89.47,54.62a1.64,1.64,0,0,0,0,3.28A1.64,1.64,0,0,0,89.47,54.62Z"/><path class="cls-5" d="M98.41,54.62a1.64,1.64,0,0,0,0,3.28A1.64,1.64,0,0,0,98.41,54.62Z"/><circle class="cls-6" cx="3.94" cy="61.33" r="2.81"/><path class="cls-7" d="M73.62,37.74s1.06-9.08-4.54-12.26h-.15c-.61,0-1.51.76-2.42,1.51L51.21,42.29a3,3,0,0,1-.61,3.33l-.45.45L35.92,60.3l-.45.45a2.88,2.88,0,0,1-2,.76c-3.63,0-8.78-6.06-6.06-8.78l.45-.45L42.13,38l.45-.45a2.51,2.51,0,0,1,2-.76c.45,0,.91.15,1.36.15L59.54,23.36c.61-.91,2.12-2.57,1.06-5-1.06-1.82-3.18-2.42-4.24-2.73-1.36,0-2.73-1.51-3.94-2.73L52,12.46c-1.67-1.67-2.12-1.82-.15-3.63L57,3.68c.91-.91,1.36-1.21,1.82-1.21.61,0,1.06.61,1.82,1.36l.45.45c1.06,1.06,2.42,2.27,2.57,3.48a10.27,10.27,0,0,0,1.67,3.18c.45.61,2.12,0,2.57.61l8.33,8.33c6.36,6.36,1.06,21.35,1.06,21.35l-3.63-3.48Zm-22.26-12-7,7a3.33,3.33,0,0,0-1.21.15l-5-5A10.23,10.23,0,0,1,34.25,29c-7,0-13.63-6.66-13.63-13.63l1.21-1.21c5.75,5.75,4.54,5.15,8.18,5.15,2.73,0,7.27-4.39,7.27-7.27,0-3.48.45-2.57-5.15-8.18l1.21-1.21C40.31,2.47,47,9.28,47,16.25a11.67,11.67,0,0,1-1.06,4.09l5.45,5.45ZM71.5,50.46a3,3,0,1,1-3,3,3,3,0,0,1,3-3ZM55.3,45l9.24,9.24,5,6.66,2.57.76,7.27-7.27-.76-2.73L72.1,46.83,62.26,37l-7,7a1.29,1.29,0,0,1,0,1.06Z"/></g></g></svg>