<svg xmlns="http://www.w3.org/2000/svg" xmlns:xlink="http://www.w3.org/1999/xlink" viewBox="0 0 100 64.63"><defs><style>.cls-1,.cls-6{opacity:0.4;}.cls-2{fill:#8dc21f;}.cls-3{fill:#fc5890;}.cls-3,.cls-4,.cls-5,.cls-7,.cls-8,.cls-9{fill-rule:evenodd;}.cls-4{fill:#889bfc;}.cls-4,.cls-5{opacity:0.3;}.cls-5{fill:#da99d2;}.cls-6{fill:#e09cd1;}.cls-7{fill:url(#未命名的渐变_22);}.cls-8{fill:url(#未命名的渐变_22-2);}.cls-9{fill:url(#未命名的渐变_22-3);}</style><linearGradient id="未命名的渐变_22" x1="15.05" y1="32.31" x2="84.95" y2="32.31" gradientUnits="userSpaceOnUse"><stop offset="0" stop-color="#f47b84" stop-opacity="0.1"/><stop offset="1" stop-color="#f57584" stop-opacity="0.9"/></linearGradient><linearGradient id="未命名的渐变_22-2" x1="47.96" y1="47.48" x2="55.41" y2="47.48" xlink:href="#未命名的渐变_22"/><linearGradient id="未命名的渐变_22-3" x1="50" y1="32.31" x2="50" y2="32.31" xlink:href="#未命名的渐变_22"/></defs><title>预约看房</title><g id="图层_2" data-name="图层 2"><g id="图层_1-2" data-name="图层 1"><g class="cls-1"><path class="cls-2" d="M9.34,6.17A1.17,1.17,0,0,1,8.17,5V1.74a1.17,1.17,0,1,1,2.33,0V5A1.17,1.17,0,0,1,9.34,6.17Z"/><path class="cls-2" d="M9.34,19.24a1.17,1.17,0,0,1-1.17-1.17V14.81a1.17,1.17,0,1,1,2.33,0v3.27A1.17,1.17,0,0,1,9.34,19.24Z"/><path class="cls-2" d="M17.51,11.07H14.24a1.17,1.17,0,0,1,0-2.33h3.27a1.17,1.17,0,1,1,0,2.33Z"/><path class="cls-2" d="M4.43,11.07H1.17a1.17,1.17,0,1,1,0-2.33H4.43a1.17,1.17,0,1,1,0,2.33Z"/><path class="cls-2" d="M15.11,16.85a1.16,1.16,0,0,1-.83-.34L12,14.2a1.17,1.17,0,0,1,1.65-1.65l2.31,2.31a1.17,1.17,0,0,1-.83,2Z"/><path class="cls-2" d="M5.87,7.61A1.16,1.16,0,0,1,5,7.27L2.73,5A1.17,1.17,0,0,1,4.38,3.31L6.7,5.62a1.17,1.17,0,0,1-.83,2Z"/><path class="cls-2" d="M3.56,16.85a1.17,1.17,0,0,1-.83-2L5,12.55A1.17,1.17,0,0,1,6.7,14.2L4.38,16.51A1.16,1.16,0,0,1,3.56,16.85Z"/><path class="cls-2" d="M12.8,7.61a1.17,1.17,0,0,1-.83-2l2.31-2.31A1.17,1.17,0,1,1,15.94,5L13.63,7.27A1.16,1.16,0,0,1,12.8,7.61Z"/></g><path class="cls-3" d="M79.32,2h0A1.76,1.76,0,0,0,77.57.25a1.74,1.74,0,0,0-1.26.53A1.74,1.74,0,0,0,75.05.25a1.76,1.76,0,0,0-1.28,3l0,0,0,0h0L76,5.38a.39.39,0,0,0,.55,0c.07-.07,1.82-1.73,2.22-2.13h0l0,0A1.75,1.75,0,0,0,79.32,2Zm-4.26-.87a.9.9,0,0,0-.9.9.13.13,0,1,1-.27,0A1.17,1.17,0,0,1,75.06.86h0a.14.14,0,0,1,0,.27Z"/><path class="cls-4" d="M89.47,54.86a1.64,1.64,0,0,0,0,3.28A1.64,1.64,0,0,0,89.47,54.86Z"/><path class="cls-5" d="M98.41,54.86a1.64,1.64,0,0,0,0,3.28A1.64,1.64,0,0,0,98.41,54.86Z"/><circle class="cls-6" cx="3.94" cy="61.57" r="2.81"/><path class="cls-7" d="M82.62,33.43l-6.41,5.28V55.89c0,4.35-2,8.73-6.29,8.73H28.38c-4.34,0-6.32-4.38-6.32-8.73V37.28l-4.68-3.85a5.77,5.77,0,0,1,0-9.27l27-22.24a9.2,9.2,0,0,1,11.25,0l27,22.24a5.77,5.77,0,0,1,0,9.27ZM60.49,40.17A3.49,3.49,0,0,0,57,36.68H41.28a3.49,3.49,0,0,0-3.49,3.49V55.89a3.49,3.49,0,0,0,3.49,3.49H57a3.49,3.49,0,0,0,3.49-3.49V40.17Z"/><path class="cls-8" d="M54.77,51.95l-4.6-2.66V42A1.11,1.11,0,0,0,48,42V49.8c0,.41.51.75.84.94a1.62,1.62,0,0,0,.5.35l4.57,2.77a1,1,0,0,0,1.41-.41,1.14,1.14,0,0,0-.51-1.51"/><path class="cls-9" d="M50,32.31Z"/></g></g></svg>