<svg xmlns="http://www.w3.org/2000/svg" viewBox="0 0 44 44"><defs><style>.cls-1{fill:#8dc21f;fill-rule:evenodd;}.cls-2{fill:none;}</style></defs><title>我的-on</title><g id="图层_2" data-name="图层 2"><g id="图层_1-2" data-name="图层 1"><path class="cls-1" d="M12.86,28.71m-1.67,0A1.67,1.67,0,1,0,12.86,27a1.67,1.67,0,0,0-1.67,1.67"/><path class="cls-1" d="M31,28.71m-1.67,0A1.67,1.67,0,1,0,31,27a1.67,1.67,0,0,0-1.67,1.67"/><path class="cls-1" d="M29.58,12.54,28.17,21H8.83c0,.28,0,.74,0,1H29.05l.66-4.46L30.45,22H39.5A17.5,17.5,0,1,0,22,39.5a17,17,0,0,0,15.71-9.77l-.77-.29A16.42,16.42,0,0,1,22,38.67,16.54,16.54,0,0,1,5.33,22,16.54,16.54,0,0,1,22,5.33,16.38,16.38,0,0,1,38.65,21l-7.4,0-1.67-8.44Z"/><rect id="_切片_" data-name="&lt;切片&gt;" class="cls-2" width="44" height="44"/></g></g></svg>