<svg xmlns="http://www.w3.org/2000/svg" viewBox="0 0 44 44"><defs><style>.cls-1{fill:#8dc21f;}.cls-2{fill:none;}</style></defs><title>活动-on</title><g id="图层_2" data-name="图层 2"><g id="图层_1-2" data-name="图层 1"><path class="cls-1" d="M30,32.37a10.46,10.46,0,0,1-4.66-1.09,11.61,11.61,0,0,1-3.74-3L21.32,28l.3-.2a14.67,14.67,0,0,0,6.23-12.3,15.64,15.64,0,0,0-2-7.73l-.18-.31L26,7.38A10.45,10.45,0,0,1,30,6.6c6.37,0,11.54,5.78,11.54,12.88S36.32,32.37,30,32.37Zm-7.69-4.19a10.91,10.91,0,0,0,3.31,2.53,9.83,9.83,0,0,0,4.38,1c6,0,10.91-5.5,10.91-12.25S36,7.24,30,7.24a9.8,9.8,0,0,0-3.38.6,16.62,16.62,0,0,1,.11,15.23A14.1,14.1,0,0,1,22.27,28.18Z"/><path class="cls-1" d="M15.42,30.3A12.08,12.08,0,0,1,6.27,26,15.81,15.81,0,0,1,2.5,15.54,15.81,15.81,0,0,1,6.27,5.11,12.08,12.08,0,0,1,15.42.77a12.08,12.08,0,0,1,9.15,4.34,15.81,15.81,0,0,1,3.77,10.43A15.81,15.81,0,0,1,24.57,26,12.08,12.08,0,0,1,15.42,30.3Zm0-28.91C8.64,1.4,3.13,7.74,3.13,15.54S8.64,29.67,15.42,29.67s12.29-6.34,12.29-14.14S22.2,1.4,15.42,1.4Z"/><path class="cls-1" d="M5.93,15.13h0a.32.32,0,0,1-.28-.35A11.08,11.08,0,0,1,9.54,7.27a10.65,10.65,0,0,1,3.34-1.93.32.32,0,0,1,.19.6A10.23,10.23,0,0,0,9.92,7.77a10.35,10.35,0,0,0-3.68,7.07A.32.32,0,0,1,5.93,15.13Z"/><path class="cls-1" d="M33.42,29.49a.32.32,0,0,1-.12-.61c2.7-1.06,3.15-4.3,3.16-4.34a.32.32,0,1,1,.63.08c0,.15-.51,3.65-3.55,4.84Z"/><path class="cls-1" d="M19.56,32.37H11a.32.32,0,0,1-.17-.58l3.29-2.07a.32.32,0,0,1,.17,0h2.27a.32.32,0,0,1,.18.05l3,2.07a.32.32,0,0,1-.18.58Zm-7.5-.63h6.47L16.43,30.3H14.34Z"/><path class="cls-1" d="M31.63,33.72H28a.19.19,0,0,1-.1-.35l1.41-.88a.19.19,0,0,1,.1,0h1a.19.19,0,0,1,.11,0l1.3.88a.19.19,0,0,1-.11.35Zm-3-.38H31l-.74-.5h-.86Z"/><path class="cls-1" d="M13,43.23a.32.32,0,0,1-.19-.57s2.85-2.13,2.94-4.07A1.83,1.83,0,0,0,15,37.09a3.05,3.05,0,0,1-1.23-2.5,3.19,3.19,0,0,1,1.44-2.15.32.32,0,0,1,.33.54,2.59,2.59,0,0,0-1.15,1.67,2.47,2.47,0,0,0,1,2,2.46,2.46,0,0,1,.88,2c-.11,2.23-3.07,4.45-3.2,4.54A.31.31,0,0,1,13,43.23Z"/><path class="cls-1" d="M27.63,42.11a.22.22,0,0,1-.11-.41A11.67,11.67,0,0,0,29,40.62a3.6,3.6,0,0,0,1.48-2.2,1.37,1.37,0,0,0-.69-1.19c-.87-.63-1.28-1.28-1.23-1.95.09-1.07,1.37-1.71,1.42-1.74a.22.22,0,0,1,.2.4s-1.11.56-1.18,1.38c0,.5.31,1,1,1.55a1.8,1.8,0,0,1,.87,1.57c-.08,1.79-3.05,3.56-3.18,3.64A.22.22,0,0,1,27.63,42.11Z"/><rect id="_切片_" data-name="&lt;切片&gt;" class="cls-2" width="44" height="44"/></g></g></svg>